:FULLY-SPECIFIED
:FORCE-ALL-JOINTS-BE-3DOF
:DEGREES
272
root 8.31951 16.2023 -25.2074 21.4385 69.07 19.1598
lfemur -24.3767 7.34589 -22.9266
ltibia 40.2957 0 0
lfoot -5.55857 -21.2479 0
ltoes 64.8956 0 0
rfemur -53.1311 -6.46086 13.0484
rtibia 86.6809 0 0
rfoot 8.52997 -0.736062 0
rtoes 2.53277 0 0
lowerback 6.51673 -4.34343 -2.5749
upperback 1.43299 -5.96309 -1.99165
thorax -2.10985 -2.94383 -0.1286
lowerneck -5.26686 -11.2104 -4.67779
upperneck 0.697665 -14.8028 5.31304
head 1.91503 -7.31364 1.89917
lclavicle -9.26171e-15 8.13427e-15 0
lhumerus -44.7808 -35.4279 106.993
lradius 59.1468 0 0
lwrist 20.1318 0 0
lhand 18.8256 14.6578 0
lfingers 7.12502 0 0
lthumb 43.4386 38.7393 0
rclavicle -9.26171e-15 8.13427e-15 0
rhumerus -53.8406 2.85136 -95.1832
rradius 43.1174 0 0
rwrist 25.0825 0 0
rhand -18.9564 -0.820148 0
rfingers 7.12502 0 0
rthumb 7.34269 -750.573 0
273
root 8.3818 16.1723 -25.1655 22.2556 69.999 20.3321
lfemur -24.1707 7.10435 -23.0134
ltibia 41.0584 0 0
lfoot -5.87871 -21.9393 0
ltoes 64.3596 0 0
rfemur -54.0401 -5.95234 13.8631
rtibia 84.66 0 0
rfoot 7.91979 -0.80476 0
rtoes 2.00137 0 0
lowerback 6.63831 -4.47973 -2.64408
upperback 1.58827 -6.14601 -2.06493
thorax -2.01535 -3.03482 -0.149291
lowerneck -5.10949 -11.2685 -4.7715
upperneck 0.670655 -14.8864 5.48583
head 1.90689 -7.35518 1.97295
lclavicle 6.10392e-15 8.08931e-15 0
lhumerus -44.6589 -35.5089 106.794
lradius 59.1163 0 0
lwrist 20.2158 0 0
lhand 19.3168 14.8643 0
lfingers 7.12502 0 0
lthumb 43.8976 38.7814 0
rclavicle 6.10392e-15 8.08931e-15 0
rhumerus -54.5795 3.49267 -96.2403
rradius 44.686 0 0
rwrist 24.3014 0 0
rhand -22.1539 1.39559 0
rfingers 7.12502 0 0
rthumb 4.25874 -748.499 0
274
root 8.4395 16.1423 -25.1255 23.0313 70.8426 21.4534
lfemur -23.9806 6.96001 -23.0939
ltibia 41.8329 0 0
lfoot -6.34822 -22.6063 0
ltoes 63.6522 0 0
rfemur -54.677 -5.40979 14.4999
rtibia 82.6074 0 0
rfoot 7.37167 -0.590177 0
rtoes 1.37596 0 0
lowerback 6.738 -4.61229 -2.71573
upperback 1.7394 -6.3233 -2.13178
thorax -1.91208 -3.12316 -0.164029
lowerneck -4.98008 -11.3206 -4.84023
upperneck 0.669695 -14.9622 5.62359
head 1.90668 -7.39287 2.03008
lclavicle 3.07285e-14 1.19908e-14 0
lhumerus -44.5846 -35.6402 106.647
lradius 59.1166 0 0
lwrist 20.3141 0 0
lhand 19.7519 15.0959 0
lfingers 7.12502 0 0
lthumb 44.3039 38.8645 0
rclavicle 3.07285e-14 1.19908e-14 0
rhumerus -55.2369 3.9752 -97.0583
rradius 46.1277 0 0
rwrist 23.439 0 0
rhand -24.7442 3.49961 0
rfingers 7.12502 0 0
rthumb 1.75858 -746.473 0
275
root 8.50169 16.1038 -25.0803 24.0243 71.6728 22.9399
lfemur -23.6263 6.89277 -23.1479
ltibia 42.7092 0 0
lfoot -7.55613 -23.1617 0
ltoes 61.3261 0 0
rfemur -54.5855 -4.78434 14.7977
rtibia 80.2088 0 0
rfoot 7.18867 0.0945822 0
rtoes 1.44336 0 0
lowerback 6.81852 -4.75725 -2.83695
upperback 1.94885 -6.51496 -2.21587
thorax -1.7334 -3.21956 -0.174057
lowerneck -4.86177 -11.3927 -4.89527
upperneck 0.727548 -15.0674 5.73861
head 1.92682 -7.44519 2.07416
lclavicle 2.85856e-14 1.09029e-14 0
lhumerus -44.5805 -36.0396 106.594
lradius 59.2069 0 0
lwrist 20.4142 0 0
lhand 19.8748 15.3921 0
lfingers 7.12502 0 0
lthumb 44.4184 39.1167 0
rclavicle 2.85856e-14 1.09029e-14 0
rhumerus -55.8936 4.26153 -97.4782
rradius 47.7155 0 0
rwrist 22.7052 0 0
rhand -25.8813 4.66744 0
rfingers 7.12502 0 0
rthumb 0.660416 -745.306 0
